<svg width="138" height="138" viewBox="0 0 138 138" fill="none" xmlns="http://www.w3.org/2000/svg">
<path d="M102.476 19.5117C101.862 19.2357 101.428 19.1201 101.176 19.1649C100.915 19.2118 100.612 19.5322 100.265 20.126L96.1847 27.1213C95.8592 27.6793 95.7317 28.092 95.8021 28.3595C95.8695 28.6321 96.183 28.9591 96.7427 29.3405L96.5725 29.6323L92.1265 27.0388L92.2967 26.747C92.8931 27.0537 93.3374 27.186 93.6296 27.1437C93.9167 27.0985 94.2126 26.8148 94.5172 26.2927L98.9247 18.7368C99.0262 18.5628 99.0787 18.4081 99.0821 18.2729C99.0774 18.1398 98.9827 18.0022 98.798 17.8602C98.6892 17.7761 98.5723 17.6942 98.4474 17.6145C98.3172 17.5317 98.073 17.3858 97.7147 17.1768C96.3172 16.3616 95.3055 15.9258 94.6797 15.8695C94.0539 15.8132 93.2344 16.1242 92.2212 16.8025L91.8219 16.5695L94.1799 14.2915L102.642 19.2276L102.476 19.5117Z" fill="#333333"/>
<path d="M89.1663 16.7519C88.8288 17.8819 88.186 18.729 87.2382 19.2932C86.2829 19.8614 85.2403 19.9767 84.1102 19.6392C82.9859 19.3033 82.1649 18.656 81.6472 17.6973C81.1295 16.7386 81.0539 15.6459 81.4203 14.4194C81.7578 13.2894 82.409 12.4139 83.3739 11.7929C84.3387 11.1718 85.389 11.031 86.5247 11.3702C87.615 11.6959 88.4181 12.3719 88.9342 13.3982C89.4503 14.4244 89.5276 15.5423 89.1663 16.7519ZM84.5014 19.1994C84.95 19.3334 85.3831 19.3019 85.8006 19.105C86.5229 18.7579 87.0731 17.9512 87.4514 16.6849C87.7533 15.6741 87.8078 14.6636 87.6147 13.6535C87.416 12.6416 86.9106 12.0143 86.0986 11.7718C85.4626 11.5818 84.8869 11.7284 84.3715 12.2115C83.8503 12.6929 83.4482 13.4077 83.1649 14.356C82.8714 15.3384 82.8135 16.3293 82.9913 17.3287C83.169 18.3282 83.6723 18.9517 84.5014 19.1994Z" fill="#333333"/>
<path d="M77.9785 9.97803C77.4312 9.97215 77.0622 10.0313 76.8714 10.1556C76.68 10.2857 76.5613 10.5868 76.5151 11.0586L76.1249 15.0488C76.0678 15.6327 76.0832 16.0541 76.171 16.3127C76.2524 16.5767 76.4376 16.7229 76.7266 16.7511C76.7856 16.7569 76.8661 16.7559 76.9681 16.748C77.0636 16.7454 77.1656 16.7375 77.2741 16.7243L77.2455 17.0163C76.8978 17.1014 76.5409 17.1885 76.1749 17.2778C75.8089 17.367 75.5555 17.4316 75.4146 17.4714C75.1087 17.5546 74.7926 17.6517 74.4661 17.7627C74.4248 17.7587 74.4027 17.7416 74.3997 17.7116C74.3908 17.6809 74.3909 17.6184 74.4002 17.524L74.542 16.073C74.1132 16.5611 73.7104 16.9355 73.3335 17.1964C72.9508 17.4567 72.5707 17.5684 72.1932 17.5315C71.8924 17.5021 71.6566 17.3867 71.4857 17.1854C71.3142 16.99 71.2418 16.7567 71.2683 16.4853C71.292 16.2435 71.3856 16.0472 71.5492 15.8965C71.7069 15.7452 71.8949 15.6802 72.1131 15.7015C72.3373 15.7235 72.5543 15.8489 72.7641 16.0778C72.968 16.3062 73.1349 16.4267 73.2647 16.4394C73.4711 16.4596 73.7412 16.3163 74.0749 16.0095C74.408 15.7086 74.5918 15.3812 74.6264 15.0273L75.0167 11.0371C75.0663 10.5299 74.9829 10.1644 74.7666 9.94083C74.5497 9.72311 74.1664 9.59333 73.6167 9.55148L73.6452 9.25952L78.007 9.68606L77.9785 9.97803Z" fill="#333333"/>
<path d="M64.6159 17.656C63.7836 17.7301 63.0288 17.5059 62.3515 16.9831C61.6747 16.4663 61.2893 15.6796 61.1951 14.6229L66.8177 14.1218C66.6366 12.7576 66.2378 11.7876 65.6213 11.2118C65.0047 10.6361 64.3127 10.3824 63.5453 10.4508C62.9255 10.5061 62.4176 10.715 62.0215 11.0775C61.6254 11.44 61.2739 11.9355 60.9669 12.5638L60.6476 12.4851C60.8228 11.7139 61.2155 10.9798 61.8257 10.2828C62.43 9.58633 63.2133 9.19523 64.1755 9.10947C65.2852 9.01056 66.1815 9.35312 66.8642 10.1372C67.541 10.9217 67.9281 11.86 68.0254 12.9521C68.1312 14.1386 67.8712 15.1941 67.2456 16.1185C66.62 17.043 65.7434 17.5555 64.6159 17.656ZM65.0719 16.9638C65.7448 16.9038 66.2318 16.5599 66.5328 15.9322C66.6933 15.5966 66.7933 15.1831 66.8328 14.6916L63.0962 15.0247C63.2138 15.6092 63.3651 16.039 63.5503 16.314C63.8858 16.8077 64.393 17.0243 65.0719 16.9638Z" fill="#333333"/>
<path d="M55.3974 10.5502C54.9766 10.746 54.7129 10.923 54.6061 11.0811C54.4414 11.3232 54.4464 11.6868 54.6212 12.1718L56.1797 16.4955C56.3285 16.908 56.4817 17.1583 56.6394 17.2464C56.7916 17.3364 56.9931 17.3362 57.244 17.2458C57.3611 17.2036 57.4482 17.1659 57.5056 17.1326C57.5573 17.1014 57.6172 17.0577 57.6852 17.0017L57.7907 17.2944L57.2609 17.7122C57.0696 17.863 56.76 18.1227 56.3321 18.4911C55.9042 18.8595 55.6764 19.0487 55.6485 19.0588C55.6206 19.0688 55.5989 19.0609 55.5832 19.0351C55.5676 19.0092 55.5457 18.9572 55.5176 18.8792L55.1106 17.7502C54.7396 18.4509 54.3875 18.9684 54.0544 19.3027C53.7233 19.6425 53.3459 19.8888 52.9222 20.0415C52.3479 20.2485 51.8204 20.2182 51.3396 19.9505C51.0849 19.8029 50.8336 19.5691 50.5859 19.2489C50.3241 19.8157 50.076 20.2548 49.8417 20.566C49.4367 21.1026 48.9582 21.4704 48.4062 21.6693C47.5086 21.9929 46.7776 21.8438 46.2133 21.2219C45.8917 20.8716 45.5702 20.2505 45.2486 19.3584L43.9976 15.8878C43.8549 15.492 43.671 15.2527 43.446 15.1701C43.2173 15.095 42.8663 15.1176 42.3931 15.2378L42.3147 15.0203L46.0864 13.6608L46.1708 13.8949C45.7018 14.1144 45.4192 14.3265 45.3229 14.5313C45.2211 14.7381 45.2536 15.0729 45.4204 15.5356L46.7196 19.14C46.9146 19.6808 47.1168 20.0584 47.3263 20.2726C47.6974 20.6555 48.184 20.7383 48.7861 20.5213C49.1485 20.3907 49.4649 20.1412 49.7353 19.7728C49.8914 19.5591 50.0647 19.2446 50.2552 18.8295L48.7118 14.5476C48.549 14.096 48.3473 13.7813 48.1068 13.6034C47.8607 13.4275 47.4782 13.4237 46.9593 13.5918L46.8809 13.3744L50.7195 11.9907L50.7978 12.2082C50.2923 12.466 50.0012 12.7158 49.9246 12.9576C49.848 13.1994 49.9433 13.6911 50.2106 14.4326L51.0546 16.7742C51.3641 17.6328 51.6329 18.2037 51.861 18.4869C52.2419 18.9669 52.7306 19.0995 53.3272 18.8844C53.6673 18.7618 53.9676 18.5465 54.2283 18.2383C54.4909 17.9358 54.6934 17.5888 54.8357 17.1973L53.1868 12.6227C53.0341 12.199 52.8561 11.9324 52.6529 11.823C52.444 11.7156 52.0905 11.7485 51.5923 11.9218L51.5139 11.7044L55.3191 10.3328L55.3974 10.5502Z" fill="#333333"/>
<path d="M38.0397 31.8633C38.2075 32.0551 38.285 32.2786 38.2721 32.534C38.2593 32.7893 38.1547 33.0028 37.9584 33.1745C37.7666 33.3423 37.5433 33.4156 37.2886 33.3944C37.0332 33.3815 36.8197 33.277 36.648 33.0807C36.4802 32.8889 36.405 32.6634 36.4223 32.4041C36.4391 32.1533 36.5433 31.9439 36.7351 31.7761C36.9314 31.6044 37.155 31.527 37.4058 31.5437C37.6606 31.5649 37.8719 31.6715 38.0397 31.8633ZM31.5037 22.6636C31.0654 23.1257 30.8346 23.4694 30.8111 23.6946C30.7916 23.9243 31.0101 24.3001 31.4666 24.822L34.2586 28.0135C34.5122 28.3034 34.7078 28.4866 34.8455 28.563C35.0724 28.6873 35.2929 28.6559 35.507 28.4686C35.5561 28.4256 35.6013 28.3782 35.6425 28.3264C35.6793 28.2785 35.7819 28.1257 35.9503 27.8682L36.1318 28.0756L35.926 28.4209C35.3678 29.358 34.9914 30.0259 34.7968 30.4245C34.7188 30.5873 34.6619 30.6843 34.6262 30.7155C34.59 30.6921 34.5562 30.6625 34.525 30.6268L30.3225 25.8228C29.8777 25.3143 29.5384 25.0481 29.3049 25.0241C29.0668 25.004 28.7158 25.1653 28.2519 25.5082L28.088 25.3208L31.3398 22.4762L31.5037 22.6636Z" fill="#333333"/>
<path d="M24.2083 31.8299C23.7962 31.7022 23.4176 31.695 23.0724 31.8082C22.7283 31.9298 22.4281 32.1537 22.1719 32.48C21.7766 32.9834 21.6892 33.608 21.9097 34.3539C22.1313 35.1081 22.6895 35.8366 23.5844 36.5394C24.4421 37.2129 25.2294 37.5297 25.9463 37.4899C26.6596 37.4548 27.2085 37.1925 27.5928 36.7031C27.8636 36.3582 28.0035 35.9594 28.0124 35.5067C28.0259 35.0576 27.9301 34.7526 27.725 34.5916L24.2083 31.8299ZM21.7803 26.3288C21.4642 26.7889 21.3396 27.1395 21.4066 27.3804C21.4699 27.6261 21.6717 27.8825 22.012 28.1497L28.7238 33.4205C29.0781 33.6986 29.3389 33.8319 29.5063 33.8202C29.6747 33.8168 29.8523 33.6963 30.039 33.4586C30.0792 33.4073 30.1153 33.3565 30.1473 33.3062C30.1756 33.2606 30.2156 33.1904 30.2675 33.0955L30.4983 33.2767L30.1934 34.1111C30.1798 34.1381 29.9727 34.7328 29.5723 35.8952C29.554 35.9185 29.5295 35.9257 29.4989 35.9167C29.4693 35.9161 29.4405 35.9047 29.4125 35.8828L28.4686 35.1416C28.5347 35.6908 28.5508 36.1405 28.5169 36.4907C28.4485 37.1151 28.2405 37.6488 27.8927 38.0915C27.3876 38.7348 26.6789 39.0711 25.7665 39.1007C24.8551 39.1385 23.924 38.7841 22.9732 38.0374C22.041 37.3054 21.4146 36.3614 21.0941 35.2054C20.7699 34.0541 20.9391 33.0567 21.6016 32.213C21.8066 31.952 22.0167 31.7516 22.2321 31.6117C22.5642 31.3903 22.9596 31.2562 23.4183 31.2095L21.132 29.4141C20.6613 29.0444 20.3119 28.8944 20.0839 28.964C19.8559 29.0337 19.5201 29.3125 19.0766 29.8006L18.8318 29.6084L21.5496 26.1476L21.7803 26.3288Z" fill="#333333"/>
<path d="M19.0917 41.2455L18.9615 41.5084C18.2956 41.3306 17.7494 41.265 17.3228 41.3115C16.5439 41.3886 15.9768 41.7855 15.6216 42.5024C15.4242 42.9007 15.3778 43.2679 15.4824 43.6041C15.5897 43.9483 15.8185 44.2072 16.169 44.3809C16.392 44.4914 16.64 44.5316 16.9129 44.5014C17.1857 44.4713 17.5033 44.3376 17.8656 44.1005L18.8174 43.4609C19.4915 42.9814 20.0828 42.6758 20.5912 42.5442C21.0996 42.4125 21.5954 42.4663 22.0787 42.7058C22.6734 43.0005 23.0567 43.455 23.2285 44.0692C23.4004 44.6835 23.3271 45.3119 23.0087 45.9545C22.8692 46.2359 22.6635 46.5176 22.3915 46.7995C22.1169 47.0867 21.9691 47.2516 21.9481 47.2941C21.9007 47.3897 21.8798 47.4653 21.8853 47.5209C21.8908 47.5766 21.9148 47.6348 21.9575 47.6956L21.8627 47.8868L19.6128 46.8413L19.7351 46.5944C20.3028 46.7434 20.7748 46.7987 21.151 46.7602C21.8452 46.6941 22.3462 46.3504 22.6541 45.7291C22.8383 45.3574 22.8688 45.0088 22.7457 44.6832C22.6226 44.3577 22.4071 44.1186 22.0991 43.966C21.6105 43.7239 20.9935 43.8745 20.2481 44.4179L19.1615 45.1891C17.9851 46.0149 16.988 46.2253 16.1702 45.82C15.5436 45.5095 15.1482 45.0193 14.9842 44.3494C14.8174 43.6847 14.9222 42.9727 15.2985 42.2133C15.4564 41.8947 15.6884 41.5599 15.9946 41.209C16.3008 40.858 16.4723 40.6454 16.5091 40.571C16.5407 40.5073 16.5444 40.4397 16.5203 40.3682C16.5015 40.2994 16.4668 40.2359 16.4163 40.1778L16.5189 39.9707L19.0917 41.2455Z" fill="#333333"/>
<path d="M19.402 54.5193L13.8957 53.0875C13.5057 52.9861 13.1789 52.9593 12.9154 53.0071C12.4243 53.106 12.1049 53.4394 11.9573 54.0072C11.8559 54.3972 11.8857 54.8122 12.0469 55.2521C12.1351 55.5016 12.2771 55.7682 12.4728 56.0518L17.1875 57.2777C17.6291 57.3926 17.9412 57.3819 18.1236 57.2456C18.306 57.1093 18.4786 56.7868 18.6415 56.278L18.9255 56.3519L18.2028 59.1308L12.146 57.5558C11.7559 57.4544 11.4685 57.4531 11.2835 57.552C11.1029 57.6581 10.9622 57.94 10.8616 58.3976L10.6207 58.3349C10.6167 57.9971 10.6111 57.7477 10.604 57.5866C10.6026 57.427 10.5901 57.1574 10.5664 56.7777C10.5535 56.6151 10.5152 56.2561 10.4514 55.7007C10.4589 55.672 10.4777 55.6585 10.5079 55.6602C10.5323 55.6605 10.5617 55.6651 10.5962 55.674L11.9813 56.0342C11.6182 55.5234 11.3665 55.0783 11.2263 54.6989C11.0089 54.1219 10.9711 53.5609 11.1128 53.016C11.2426 52.517 11.5427 52.0929 12.0131 51.7438C12.4793 51.3874 13.1254 51.3165 13.9513 51.5313L18.4166 52.6924C18.8754 52.8117 19.2076 52.794 19.4132 52.6393C19.5435 52.5384 19.6825 52.2867 19.83 51.8842L20.0709 51.9469L19.402 54.5193Z" fill="#333333"/>
<path d="M9.2336 62.8949C9.27929 63.3567 9.35913 63.6642 9.47313 63.8173C9.64715 64.0527 9.99195 64.1681 10.5075 64.1634L15.1033 64.1216C15.5418 64.1176 15.8287 64.0558 15.9639 63.936C16.0992 63.8222 16.1656 63.6319 16.1632 63.3652C16.1621 63.2408 16.1553 63.146 16.1428 63.0809C16.1304 63.0218 16.109 62.9508 16.0787 62.8681L16.3898 62.8653L16.609 63.5034C16.6881 63.7338 16.8308 64.1118 17.0371 64.6374C17.2434 65.163 17.3467 65.4406 17.3469 65.4703C17.3472 65.4999 17.3326 65.5178 17.303 65.524C17.2734 65.5302 17.2171 65.5337 17.1342 65.5344L15.9341 65.5454C16.4728 66.1272 16.8448 66.6305 17.0502 67.0554C17.2615 67.4802 17.3692 67.9178 17.3733 68.3682C17.3789 68.9786 17.1759 69.4664 16.7643 69.8317C16.5409 70.0234 16.2371 70.1832 15.853 70.3111C16.3015 70.7456 16.6339 71.1249 16.8502 71.4489C17.2227 72.0085 17.4117 72.5817 17.417 73.1684C17.4257 74.1225 17.0433 74.7631 16.2699 75.0902C15.833 75.2779 15.1405 75.376 14.1923 75.3847L10.5033 75.4182C10.0825 75.4221 9.79592 75.5165 9.64351 75.7017C9.49708 75.8926 9.40237 76.2313 9.35938 76.7177L9.12826 76.7198L9.09178 72.7107L9.34068 72.7085C9.39278 73.2236 9.49956 73.5605 9.66103 73.719C9.82254 73.8835 10.1492 73.9635 10.6411 73.959L14.4724 73.9242C15.0472 73.9189 15.4704 73.8528 15.7419 73.7259C16.2258 73.5022 16.4649 73.0704 16.459 72.4303C16.4555 72.0451 16.3247 71.6641 16.0664 71.2871C15.9162 71.0692 15.6767 70.8017 15.3479 70.4846L10.7966 70.5261C10.3165 70.5304 9.95284 70.6167 9.70545 70.7849C9.45811 70.959 9.32803 71.3188 9.31522 71.8642L9.0841 71.8663L9.04697 67.7861L9.27809 67.784C9.35433 68.3463 9.49389 68.7036 9.69678 68.8559C9.89968 69.0081 10.3952 69.0806 11.1834 69.0735L13.6724 69.0508C14.585 69.0425 15.2127 68.9775 15.5553 68.8559C16.1343 68.655 16.4209 68.2376 16.4151 67.6035C16.4118 67.242 16.3079 66.8873 16.1032 66.5395C15.9044 66.1916 15.6438 65.8858 15.3214 65.622L10.459 65.6663C10.0086 65.6704 9.69816 65.7503 9.5277 65.9059C9.3573 66.0675 9.27153 66.412 9.2704 66.9395L9.03928 66.9416L9.00248 62.897L9.2336 62.8949Z" fill="#333333"/>
<path d="M21.7385 89.8587C21.9126 90.2548 21.9855 90.6565 21.9573 91.0638C21.9387 91.3309 21.8731 91.6089 21.7606 91.8978L24.3487 90.7607C24.6797 90.6153 24.8909 90.4772 24.9823 90.3464C25.0761 90.221 25.0622 90.02 24.9406 89.7432C24.912 89.6781 24.8843 89.6224 24.8574 89.5759C24.8305 89.5295 24.772 89.4257 24.6818 89.2647L24.9504 89.1467L25.4145 89.7389C25.5869 89.9545 25.762 90.1688 25.9398 90.382C26.1176 90.5952 26.2796 90.7797 26.4258 90.9356C26.491 91.0105 26.6058 91.1316 26.7699 91.299L26.7751 91.355L25.9134 91.7142C25.6017 91.8446 25.2792 91.9799 24.9459 92.1199C24.6179 92.2575 24.2939 92.3966 23.9738 92.5372L17.3173 95.4425C16.9646 95.5975 16.7368 95.7494 16.6339 95.8982C16.531 96.0469 16.5618 96.3085 16.7263 96.6829C16.7525 96.7426 16.7787 96.8023 16.8049 96.862C16.8366 96.9193 16.871 96.9754 16.908 97.0303L16.6394 97.1483C16.6143 97.1205 16.3058 96.7867 15.714 96.147L14.6724 95.0802L14.7206 94.991L15.7217 94.5512C15.2572 94.3928 14.9056 94.2333 14.6667 94.0728C14.2485 93.784 13.925 93.3792 13.6962 92.8583C13.2909 91.9359 13.3173 91.031 13.7754 90.1436C14.2413 89.2592 14.9435 88.6108 15.8822 88.1984C17.0596 87.681 18.219 87.5795 19.3604 87.8936C20.5095 88.2108 21.3023 88.8658 21.7385 89.8587ZM14.9041 93.2209C15.0901 93.6441 15.3651 93.9311 15.7291 94.0819C16.0931 94.2326 16.3863 94.2592 16.6088 94.1614L20.1003 92.6273C20.8056 92.3174 21.2187 91.9094 21.3394 91.4032C21.4679 90.9001 21.4534 90.4695 21.2961 90.1114C20.9957 89.4278 20.4582 89.0295 19.6837 88.9167C18.9145 88.8015 18.0878 88.9382 17.2034 89.3268C16.3298 89.7106 15.6394 90.2535 15.1322 90.9554C14.6273 91.6627 14.5513 92.4179 14.9041 93.2209Z" fill="#333333"/>
<path d="M21.6082 99.0838C22.5594 98.3867 23.5832 98.0992 24.6795 98.2215C25.7841 98.3451 26.6849 98.8825 27.3821 99.8337C28.0758 100.78 28.3397 101.792 28.1737 102.869C28.0078 103.946 27.4086 104.862 26.3761 105.619C25.4249 106.316 24.3772 106.621 23.2331 106.534C22.089 106.447 21.1666 105.925 20.4659 104.969C19.7933 104.051 19.561 103.028 19.769 101.898C19.977 100.768 20.5901 99.8301 21.6082 99.0838ZM26.8048 99.9483C26.528 99.5707 26.1637 99.3343 25.712 99.2393C24.9267 99.0801 24.001 99.3911 22.9351 100.172C22.0842 100.796 21.4309 101.569 20.9751 102.491C20.5227 103.417 20.5471 104.223 21.048 104.906C21.4404 105.441 21.9879 105.672 22.6904 105.598C23.3965 105.529 24.1487 105.202 24.9469 104.617C25.7739 104.01 26.4181 103.255 26.8797 102.351C27.3413 101.447 27.3163 100.646 26.8048 99.9483Z" fill="#333333"/>
<path d="M26.6311 111.454C27.0701 111.791 27.4177 111.966 27.6739 111.979C27.9341 111.987 28.2322 111.811 28.5682 111.452L34.5006 105.108C34.7678 104.823 34.9282 104.603 34.9817 104.451C35.0652 104.188 34.9749 103.933 34.7109 103.686C34.6503 103.629 34.5771 103.573 34.4914 103.517C34.41 103.466 34.303 103.402 34.1705 103.327L34.3709 103.113C35.101 103.503 35.9987 103.953 37.064 104.463C37.0943 104.491 37.0994 104.52 37.0795 104.55C37.0638 104.584 37.0155 104.645 36.9346 104.731L29.6542 112.516C29.302 112.893 29.1382 113.198 29.1628 113.432C29.1915 113.662 29.3951 113.982 29.7736 114.393L29.6036 114.574L26.4611 111.636L26.6311 111.454Z" fill="#333333"/>
<path d="M35.7375 114.372C36.3695 113.377 37.2183 112.736 38.2838 112.451C39.3576 112.164 40.3923 112.336 41.388 112.968C42.3787 113.597 42.9929 114.443 43.2305 115.506C43.4681 116.57 43.2439 117.642 42.5579 118.723C41.9259 119.718 41.0613 120.384 39.964 120.719C38.8667 121.055 37.8177 120.905 36.8169 120.27C35.8562 119.66 35.267 118.791 35.0493 117.663C34.8317 116.535 35.061 115.438 35.7375 114.372ZM40.892 113.285C40.4967 113.034 40.0714 112.947 39.6161 113.023C38.8267 113.16 38.0779 113.787 37.3697 114.903C36.8044 115.794 36.4773 116.751 36.3885 117.776C36.3048 118.804 36.6206 119.545 37.3361 119.999C37.8965 120.355 38.4904 120.37 39.1178 120.045C39.7501 119.724 40.3314 119.145 40.8618 118.309C41.4112 117.444 41.7363 116.506 41.8369 115.496C41.9375 114.486 41.6226 113.749 40.892 113.285Z" fill="#333333"/>
<path d="M44.6628 123.933C45.1878 124.087 45.5591 124.13 45.7764 124.063C45.996 123.989 46.1921 123.732 46.3647 123.29L47.8248 119.556C48.0385 119.01 48.1382 118.6 48.124 118.328C48.1174 118.051 47.9789 117.86 47.7085 117.755C47.6533 117.733 47.5755 117.712 47.4752 117.692C47.3826 117.669 47.2823 117.648 47.1743 117.632L47.2812 117.359C47.6389 117.371 48.0061 117.384 48.3826 117.398C48.759 117.411 49.0205 117.418 49.1669 117.418C49.4838 117.421 49.8145 117.414 50.1588 117.396C50.1975 117.411 50.2141 117.433 50.2089 117.463C50.2091 117.495 50.192 117.555 50.1574 117.643L49.6265 119.001C50.1718 118.648 50.6613 118.397 51.0948 118.248C51.5339 118.102 51.9301 118.098 52.2833 118.236C52.5648 118.346 52.7604 118.521 52.8701 118.761C52.982 118.996 52.9883 119.24 52.889 119.494C52.8005 119.72 52.6571 119.884 52.4587 119.984C52.2658 120.087 52.0672 120.099 51.863 120.019C51.6533 119.937 51.4785 119.757 51.3388 119.48C51.2046 119.205 51.0768 119.043 50.9554 118.996C50.7622 118.92 50.4633 118.985 50.0588 119.189C49.6565 119.388 49.3905 119.653 49.261 119.984L47.801 123.718C47.6154 124.193 47.5962 124.567 47.7436 124.841C47.8932 125.11 48.2268 125.339 48.7444 125.529L48.6376 125.802L44.5559 124.206L44.6628 123.933Z" fill="#333333"/>
<path d="M63.4184 126.389L63.7114 126.404C63.8128 127.086 63.9696 127.613 64.1819 127.986C64.562 128.671 65.1516 129.033 65.9507 129.074C66.3946 129.097 66.75 128.994 67.017 128.764C67.2902 128.529 67.4368 128.216 67.4569 127.826C67.4697 127.577 67.4081 127.333 67.272 127.095C67.1359 126.857 66.8871 126.618 66.5255 126.38L65.5604 125.761C64.8525 125.333 64.3371 124.912 64.0142 124.497C63.6914 124.083 63.5438 123.607 63.5715 123.068C63.6056 122.405 63.8704 121.873 64.3658 121.471C64.8612 121.069 65.467 120.887 66.1832 120.924C66.4968 120.94 66.8371 121.017 67.2039 121.154C67.5766 121.292 67.7866 121.362 67.8339 121.365C67.9405 121.37 68.0182 121.359 68.067 121.332C68.1159 121.305 68.1598 121.26 68.1986 121.197L68.4117 121.208L68.3464 123.688L68.0712 123.674C67.9823 123.093 67.8455 122.638 67.6608 122.308C67.3243 121.698 66.8098 121.374 66.1173 121.339C65.703 121.317 65.3709 121.428 65.1211 121.67C64.8712 121.913 64.7375 122.205 64.7198 122.549C64.6918 123.093 65.0752 123.599 65.87 124.068L67.0095 124.758C68.2348 125.51 68.824 126.341 68.7771 127.253C68.7412 127.951 68.4484 128.509 67.8988 128.925C67.3552 129.342 66.6601 129.529 65.8138 129.486C65.4587 129.467 65.0592 129.388 64.6155 129.246C64.1718 129.105 63.9085 129.032 63.8256 129.027C63.7546 129.024 63.6911 129.047 63.6351 129.098C63.5794 129.142 63.5349 129.199 63.5017 129.269L63.2708 129.257L63.4184 126.389Z" fill="#333333"/>
<path d="M73.9883 117.715C73.9572 117.462 74.0188 117.233 74.1729 117.029C74.3269 116.825 74.5334 116.707 74.7922 116.676C75.0452 116.645 75.2711 116.709 75.4699 116.87C75.6739 117.024 75.7918 117.231 75.8236 117.489C75.8546 117.742 75.7901 117.971 75.6302 118.176C75.4753 118.374 75.2715 118.489 75.0185 118.52C74.7597 118.551 74.5312 118.49 74.3331 118.335C74.1343 118.174 74.0193 117.968 73.9883 117.715ZM74.2265 128.997C74.8486 128.861 75.2327 128.707 75.3786 128.533C75.5239 128.354 75.5542 127.921 75.4698 127.233L74.9533 123.024C74.9064 122.641 74.8474 122.38 74.7764 122.239C74.6586 122.009 74.4585 121.911 74.1761 121.946C74.1114 121.954 74.0475 121.968 73.9842 121.987C73.9268 122.006 73.7561 122.075 73.4721 122.193L73.4385 121.92L73.8028 121.75C74.791 121.288 75.4776 120.947 75.8626 120.727C76.0186 120.636 76.1202 120.588 76.1672 120.582C76.1841 120.622 76.1954 120.665 76.2011 120.712L76.9786 127.047C77.0609 127.718 77.1919 128.129 77.3717 128.28C77.5573 128.43 77.9383 128.494 78.5146 128.471L78.545 128.718L74.2568 129.244L74.2265 128.997Z" fill="#333333"/>
<path d="M85.289 118.705L85.4637 119.321L83.719 119.815L85.099 124.746C85.2219 125.18 85.3519 125.497 85.4891 125.698C85.7375 126.053 86.0613 126.174 86.4604 126.06C86.6656 126.002 86.8286 125.904 86.9494 125.765C87.0758 125.624 87.2061 125.421 87.3401 125.155L87.6158 125.28L87.5004 125.59C87.3171 126.073 87.0836 126.444 86.7998 126.703C86.516 126.963 86.2202 127.136 85.9123 127.223C85.2395 127.414 84.6985 127.244 84.2892 126.713C84.0659 126.425 83.8726 125.994 83.7093 125.418L82.2394 120.235L81.3072 120.499C81.2739 120.49 81.2462 120.48 81.2243 120.467C81.208 120.454 81.1958 120.432 81.1877 120.404C81.1716 120.347 81.1709 120.301 81.1856 120.266C81.2044 120.224 81.266 120.126 81.3705 119.973C81.6718 119.537 81.8796 119.194 81.9941 118.946C82.1126 118.691 82.3711 118.038 82.7696 116.989C82.8437 116.968 82.8881 116.962 82.9027 116.97C82.9231 116.976 82.9438 117.017 82.9648 117.091L83.5615 119.195L85.289 118.705Z" fill="#333333"/>
<path d="M101.154 114.324C100.717 114.894 100.392 115.417 100.178 115.892C99.7693 116.808 99.7534 117.543 100.13 118.097C100.434 118.543 100.804 118.771 101.241 118.781C101.526 118.788 101.786 118.712 102.021 118.552C102.344 118.332 102.591 118.031 102.762 117.65C102.937 117.265 102.93 116.933 102.74 116.654L101.154 114.324ZM99.1674 119.494C98.6838 118.784 98.6355 117.949 99.0223 116.991C99.2729 116.39 99.9001 115.379 100.904 113.957L100.479 113.332C100.138 112.833 99.8527 112.518 99.6213 112.389C99.2313 112.174 98.7742 112.245 98.25 112.602C98.0001 112.772 97.8059 112.997 97.6672 113.278C97.5319 113.564 97.5426 113.822 97.6994 114.052C97.7394 114.111 97.82 114.203 97.9412 114.328C98.0591 114.449 98.1314 114.529 98.1581 114.568C98.3448 114.842 98.3843 115.095 98.2764 115.326C98.2168 115.46 98.116 115.575 97.974 115.672C97.7535 115.822 97.5361 115.866 97.3218 115.804C97.1042 115.737 96.9354 115.615 96.8153 115.439C96.5819 115.096 96.5491 114.595 96.7169 113.936C96.8864 113.268 97.3801 112.656 98.1983 112.099C99.1487 111.452 100.003 111.322 100.761 111.71C101.173 111.924 101.598 112.355 102.039 113.002L104.045 115.948C104.238 116.232 104.391 116.415 104.504 116.496C104.697 116.644 104.895 116.649 105.096 116.513C105.208 116.436 105.29 116.355 105.34 116.271C105.39 116.187 105.461 116.017 105.552 115.761L105.812 116.143C105.785 116.441 105.723 116.713 105.625 116.959C105.477 117.332 105.262 117.615 104.977 117.808C104.644 118.035 104.328 118.092 104.03 117.98C103.736 117.865 103.48 117.662 103.262 117.374C103.11 117.95 102.955 118.407 102.797 118.744C102.531 119.312 102.198 119.733 101.796 120.006C101.374 120.293 100.909 120.395 100.401 120.311C99.8886 120.222 99.4775 119.95 99.1674 119.494Z" fill="#333333"/>
<path d="M109.878 113.808C110.15 113.432 110.294 113.149 110.31 112.959C110.336 112.667 110.155 112.352 109.766 112.014L106.298 108.997C105.968 108.709 105.712 108.565 105.531 108.565C105.355 108.56 105.179 108.659 105.004 108.86C104.922 108.954 104.864 109.029 104.83 109.086C104.8 109.139 104.769 109.206 104.737 109.288L104.502 109.084L104.762 108.461C104.855 108.236 104.999 107.858 105.193 107.328C105.388 106.798 105.494 106.522 105.514 106.499C105.533 106.477 105.556 106.473 105.582 106.488C105.609 106.503 105.653 106.538 105.716 106.593L106.621 107.38C106.604 106.588 106.659 105.964 106.787 105.51C106.911 105.052 107.12 104.653 107.416 104.313C107.817 103.853 108.292 103.622 108.842 103.622C109.137 103.627 109.47 103.708 109.843 103.867C109.795 103.245 109.798 102.74 109.851 102.355C109.943 101.689 110.182 101.134 110.567 100.692C111.193 99.9719 111.904 99.746 112.7 100.014C113.152 100.163 113.735 100.549 114.45 101.172L117.234 103.593C117.551 103.87 117.828 103.989 118.065 103.951C118.301 103.906 118.597 103.715 118.951 103.379L119.126 103.531L116.494 106.556L116.306 106.392C116.609 105.972 116.753 105.649 116.737 105.424C116.725 105.193 116.534 104.917 116.163 104.594L113.272 102.079C112.838 101.702 112.478 101.471 112.191 101.385C111.68 101.232 111.215 101.397 110.794 101.879C110.542 102.17 110.387 102.542 110.33 102.995C110.298 103.258 110.3 103.617 110.336 104.073L113.769 107.06C114.131 107.375 114.461 107.552 114.758 107.59C115.058 107.624 115.394 107.441 115.765 107.041L115.94 107.193L113.261 110.271L113.087 110.119C113.403 109.648 113.536 109.288 113.485 109.04C113.434 108.791 113.111 108.408 112.516 107.891L110.639 106.257C109.95 105.658 109.437 105.29 109.1 105.154C108.534 104.92 108.042 105.043 107.626 105.521C107.389 105.794 107.231 106.128 107.154 106.524C107.072 106.916 107.064 107.318 107.13 107.729L110.799 110.921C111.139 111.217 111.424 111.363 111.655 111.359C111.889 111.352 112.182 111.151 112.533 110.757L112.707 110.908L110.052 113.96L109.878 113.808Z" fill="#333333"/>
<path d="M115.66 92.2186C116.03 91.4694 116.615 90.9419 117.414 90.636C118.208 90.3275 119.08 90.4082 120.031 90.8782L117.53 95.9389C118.789 96.4949 119.825 96.6597 120.638 96.4333C121.45 96.2069 122.027 95.7483 122.368 95.0576C122.644 94.4997 122.73 93.9573 122.627 93.4303C122.524 92.9034 122.284 92.3453 121.908 91.756L122.141 91.5243C122.708 92.0756 123.13 92.7932 123.408 93.6772C123.687 94.5558 123.613 95.4281 123.185 96.2942C122.692 97.293 121.932 97.8797 120.908 98.0541C119.885 98.2232 118.883 98.0649 117.9 97.5791C116.832 97.0514 116.066 96.2797 115.603 95.2641C115.14 94.2486 115.159 93.2334 115.66 92.2186ZM116.014 92.9683C115.714 93.574 115.754 94.1688 116.133 94.7528C116.336 95.0646 116.637 95.3653 117.036 95.655L118.698 92.2918C118.138 92.0877 117.692 91.993 117.361 92.0079C116.765 92.0371 116.316 92.3573 116.014 92.9683Z" fill="#333333"/>
<path d="M119.701 81.6708L120.316 81.8471L119.817 83.5905L124.734 85.0178C125.167 85.1419 125.506 85.1987 125.749 85.1883C126.181 85.1642 126.454 84.9527 126.569 84.5539C126.628 84.3488 126.63 84.1583 126.575 83.9824C126.522 83.8009 126.418 83.583 126.263 83.3289L126.515 83.1606L126.717 83.4221C127.031 83.8326 127.223 84.2267 127.294 84.6045C127.365 84.9823 127.356 85.325 127.268 85.6326C127.075 86.3049 126.645 86.675 125.979 86.7429C125.616 86.7809 125.147 86.7175 124.572 86.5526L119.393 85.0689L119.126 86.0004C119.101 86.024 119.078 86.0419 119.056 86.0541C119.035 86.0606 119.011 86.0597 118.982 86.0516C118.925 86.0353 118.886 86.0116 118.864 85.9807C118.838 85.9424 118.787 85.8386 118.713 85.6692C118.501 85.183 118.319 84.8259 118.169 84.5979C118.014 84.3625 117.596 83.7989 116.915 82.907C116.936 82.8329 116.954 82.7918 116.969 82.7837C116.985 82.7699 117.03 82.7736 117.104 82.7948L119.206 83.3971L119.701 81.6708Z" fill="#333333"/>
<path d="M128.946 74.9395C129.539 75.0178 130.063 75.3051 130.518 75.8015C130.972 76.2979 131.279 76.8076 131.437 77.3306L131.062 77.4515C130.82 76.8456 130.527 76.4124 130.185 76.1521C129.843 75.8858 129.549 75.7364 129.302 75.7039C129.22 75.693 129.164 75.7125 129.133 75.7623C129.103 75.812 129.084 75.8663 129.076 75.9251L129.06 76.5237C129.027 76.7705 128.918 76.9862 128.732 77.1709C128.541 77.3548 128.292 77.4266 127.986 77.3863C127.751 77.3553 127.533 77.2399 127.333 77.04C127.132 76.8402 127.057 76.5463 127.108 76.1586C127.157 75.7884 127.348 75.4758 127.68 75.2208C128.007 74.965 128.429 74.8713 128.946 74.9395Z" fill="#333333"/>
<path d="M120.044 59.4597C119.908 58.7313 119.981 58.0698 120.263 57.475C120.537 56.8755 120.899 56.534 121.347 56.4507C121.54 56.415 121.733 56.4484 121.927 56.551C122.115 56.6547 122.235 56.8464 122.287 57.1261C122.325 57.33 122.288 57.5237 122.178 57.707C122.066 57.8844 121.882 58.033 121.627 58.1528L121.227 58.3356C120.933 58.4687 120.739 58.6404 120.645 58.8507C120.558 59.0657 120.544 59.3305 120.603 59.6452C120.726 60.3094 121.122 60.8176 121.79 61.1696C122.451 61.5169 123.263 61.6013 124.224 61.4226C125.104 61.2592 125.847 60.8619 126.453 60.2309C127.058 59.5941 127.281 58.8474 127.122 57.9909C127.009 57.3849 126.711 56.8827 126.227 56.4844C125.95 56.2586 125.533 56.0227 124.974 55.7768L125.078 55.5044C125.839 55.7067 126.457 55.9534 126.933 56.2447C127.845 56.8047 128.387 57.5479 128.559 58.4743C128.728 59.3833 128.519 60.254 127.932 61.0863C127.345 61.9187 126.437 62.4491 125.208 62.6775C124.002 62.9016 122.894 62.7127 121.884 62.1107C120.874 61.5087 120.26 60.625 120.044 59.4597Z" fill="#333333"/>
<path d="M122.483 51.4364C121.395 51.8911 120.332 51.9305 119.295 51.5545C118.25 51.1753 117.501 50.4416 117.046 49.3534C116.593 48.2707 116.574 47.2254 116.988 46.2175C117.402 45.2096 118.199 44.4589 119.38 43.9654C120.469 43.5107 121.559 43.4599 122.65 43.813C123.742 44.1662 124.516 44.8896 124.973 45.9832C125.412 47.0331 125.398 48.0828 124.931 49.1323C124.464 50.1817 123.648 50.9498 122.483 51.4364ZM117.634 49.3775C117.814 49.8095 118.113 50.1246 118.53 50.323C119.256 50.6619 120.229 50.5766 121.448 50.0671C122.422 49.6604 123.238 49.0624 123.897 48.273C124.554 47.4782 124.72 46.6899 124.393 45.9079C124.137 45.2955 123.659 44.9428 122.958 44.8501C122.256 44.7519 121.448 44.8935 120.535 45.2751C119.589 45.6704 118.785 46.2533 118.125 47.024C117.464 47.7946 117.3 48.5791 117.634 49.3775Z" fill="#333333"/>
<path d="M120.596 38.1871C120.31 37.874 120.056 37.6941 119.834 37.6473C119.605 37.5991 119.267 37.7321 118.821 38.0463L115.138 40.6441C114.828 40.8627 114.631 41.0455 114.546 41.1924C114.427 41.4143 114.468 41.668 114.669 41.9538C114.7 41.9974 114.735 42.0417 114.774 42.0867C114.81 42.1268 114.856 42.1774 114.914 42.2384L114.659 42.4177C114.461 42.2601 113.98 41.8963 113.215 41.3261L112.508 40.8021C112.484 40.7682 112.483 40.7403 112.504 40.7183C112.521 40.6916 112.551 40.6628 112.595 40.6321L113.663 39.8789C112.932 39.7271 112.4 39.5799 112.068 39.4374C111.564 39.227 111.169 38.9184 110.882 38.5116C110.65 38.1823 110.532 37.8154 110.53 37.411C110.529 36.6284 111.001 35.904 111.945 35.2379L115.338 32.8451C115.686 32.5991 115.889 32.3513 115.945 32.1015C116 31.8518 115.915 31.5605 115.687 31.2278L115.891 31.0843L118.078 34.1862L117.875 34.3297C117.577 34.0103 117.306 33.8317 117.062 33.7937C116.813 33.7591 116.441 33.9161 115.947 34.2645L112.845 36.4524C112.429 36.7461 112.14 37.0661 111.978 37.4124C111.811 37.7621 111.874 38.1452 112.168 38.5617C112.37 38.8474 112.672 39.0697 113.074 39.2284C113.301 39.3145 113.635 39.3978 114.077 39.4783L118.145 36.609C118.493 36.363 118.674 36.1199 118.685 35.8795C118.692 35.6425 118.583 35.3536 118.357 35.0126L118.56 34.8691L120.799 38.0437L120.596 38.1871Z" fill="#333333"/>
<path d="M110.424 29.2783L110.209 29.0781C110.57 28.4912 110.79 27.9867 110.867 27.5647C111.017 26.7964 110.799 26.1393 110.214 25.5935C109.889 25.2902 109.551 25.1405 109.199 25.1443C108.838 25.1483 108.525 25.2933 108.258 25.5793C108.088 25.7613 107.978 25.9873 107.929 26.2574C107.88 26.5275 107.917 26.87 108.04 27.2851L108.38 28.3803C108.646 29.1636 108.769 29.8177 108.75 30.3425C108.73 30.8673 108.536 31.3269 108.168 31.7211C107.715 32.2064 107.17 32.4433 106.532 32.4318C105.895 32.4203 105.314 32.1699 104.789 31.6807C104.56 31.4664 104.349 31.1886 104.157 30.8472C103.96 30.5017 103.845 30.3128 103.81 30.2805C103.732 30.2077 103.666 30.166 103.611 30.1553C103.556 30.1446 103.493 30.151 103.423 30.1744L103.267 30.0288L104.913 28.1731L105.115 28.3611C104.809 28.8622 104.621 29.2985 104.55 29.67C104.414 30.354 104.6 30.9325 105.107 31.4056C105.41 31.6886 105.735 31.8178 106.083 31.7932C106.43 31.7687 106.721 31.6307 106.955 31.3794C107.327 30.9808 107.36 30.3465 107.053 29.4765L106.626 28.2145C106.172 26.8507 106.256 25.8351 106.879 25.1678C107.356 24.6566 107.939 24.4184 108.628 24.4533C109.312 24.4841 109.964 24.7886 110.584 25.3668C110.844 25.6094 111.098 25.9277 111.347 26.3217C111.595 26.7156 111.75 26.9409 111.81 26.9975C111.862 27.046 111.926 27.069 112.001 27.0664C112.073 27.0681 112.143 27.0531 112.214 27.0213L112.383 27.179L110.424 29.2783Z" fill="#333333"/>
<path d="M39.2406 17.3665C38.8082 17.7019 38.5558 17.9776 38.4835 18.1935C38.4145 18.4144 38.5085 18.724 38.7656 19.1224L40.9394 22.4912C41.2575 22.9841 41.5314 23.3047 41.7609 23.4528C41.9887 23.6091 42.2246 23.6085 42.4686 23.451C42.5184 23.4189 42.5808 23.368 42.6559 23.2985C42.7291 23.2371 42.8041 23.1675 42.8809 23.0898L43.04 23.3363C42.8204 23.619 42.595 23.9091 42.3637 24.2065C42.1324 24.5038 41.9739 24.7119 41.8883 24.8306C41.7004 25.0859 41.513 25.3584 41.3262 25.6482C41.2913 25.6707 41.2634 25.6711 41.2423 25.6495C41.2163 25.631 41.1776 25.5819 41.1262 25.5022L40.3357 24.2772C40.303 24.9261 40.2201 25.4698 40.0869 25.9084C39.9488 26.3501 39.7204 26.6739 39.4017 26.8795C39.1478 27.0434 38.8913 27.0996 38.6323 27.048C38.3766 27.0015 38.1748 26.8637 38.027 26.6346C37.8952 26.4304 37.8466 26.2185 37.8811 25.9987C37.9107 25.7821 38.0176 25.6144 38.2018 25.4955C38.391 25.3734 38.639 25.3369 38.9457 25.3858C39.2474 25.438 39.453 25.4287 39.5625 25.358C39.7368 25.2456 39.8594 24.9655 39.9302 24.5178C40.0042 24.075 39.9448 23.7043 39.752 23.4055L37.5782 20.0367C37.3018 19.6085 37.0094 19.374 36.701 19.3332C36.3958 19.2974 36.0148 19.4339 35.5581 19.7427L35.3991 19.4962L39.0815 17.12L39.2406 17.3665Z" fill="#333333"/>
<g clip-path="url(#clip0_1_37)">
<path d="M69.0002 83.025L66.8252 81.045C59.1002 74.04 54.0002 69.42 54.0002 63.75C54.0002 59.13 57.6302 55.5 62.2502 55.5C64.8602 55.5 67.3652 56.715 69.0002 58.635C70.6352 56.715 73.1402 55.5 75.7502 55.5C80.3702 55.5 84.0002 59.13 84.0002 63.75C84.0002 69.42 78.9002 74.04 71.1752 81.06L69.0002 83.025Z" fill="#333333"/>
</g>
<circle cx="69" cy="69" r="68.5" stroke="#333333"/>
<defs>
<clipPath id="clip0_1_37">
<rect width="36" height="36" fill="white" transform="translate(51 51)"/>
</clipPath>
</defs>
</svg>
